<svg xmlns="http://www.w3.org/2000/svg" viewBox="0 0 1292.23 360.32">
  <style>
    .key-bg { fill: #f5f5f5; stroke: #d4d4d4; stroke-width: 1; }
    .key-index { fill: #171717; font-family: ui-monospace, SFMono-Regular, "SF Mono", Menlo, Consolas, "Liberation Mono", monospace; font-weight: 700; text-anchor: middle; dominant-baseline: central; }
    .key-part { font-family: system-ui, -apple-system, BlinkMacSystemFont, "Segoe UI", Roboto, sans-serif; text-anchor: middle; dominant-baseline: central; }
    @media (prefers-color-scheme: dark) {
      .key-bg { fill: #2a2a2a; stroke: #404040; }
      .key-index { fill: #e5e5e5; }
    }
    .key-bg.part-0 { stroke: #f59e0b; }
    .key-part.part-0 { fill: #f59e0b; }
    .key-bg.part-1 { stroke: #14b8a6; }
    .key-part.part-1 { fill: #14b8a6; }
  </style>
  <g>
    <path class="key-bg part-0" d="M 26.00,22.00 L 84.00,22.00 Q 88.00,22.00 88.00,26.00 L 88.00,84.00 Q 88.00,88.00 84.00,88.00 L 26.00,88.00 Q 22.00,88.00 22.00,84.00 L 22.00,26.00 Q 22.00,22.00 26.00,22.00 Z" />
    <path class="key-bg part-0" d="M 99.92,22.00 L 157.92,22.00 Q 161.92,22.00 161.92,26.00 L 161.92,84.00 Q 161.92,88.00 157.92,88.00 L 99.92,88.00 Q 95.92,88.00 95.92,84.00 L 95.92,26.00 Q 95.92,22.00 99.92,22.00 Z" />
    <path class="key-bg part-0" d="M 173.77,22.00 L 231.77,22.00 Q 235.77,22.00 235.77,26.00 L 235.77,84.00 Q 235.77,88.00 231.77,88.00 L 173.77,88.00 Q 169.77,88.00 169.77,84.00 L 169.77,26.00 Q 169.77,22.00 173.77,22.00 Z" />
    <path class="key-bg part-0" d="M 247.69,22.00 L 305.69,22.00 Q 309.69,22.00 309.69,26.00 L 309.69,84.00 Q 309.69,88.00 305.69,88.00 L 247.69,88.00 Q 243.69,88.00 243.69,84.00 L 243.69,26.00 Q 243.69,22.00 247.69,22.00 Z" />
    <path class="key-bg part-0" d="M 321.54,22.00 L 379.54,22.00 Q 383.54,22.00 383.54,26.00 L 383.54,84.00 Q 383.54,88.00 379.54,88.00 L 321.54,88.00 Q 317.54,88.00 317.54,84.00 L 317.54,26.00 Q 317.54,22.00 321.54,22.00 Z" />
    <path class="key-bg part-0" d="M 395.46,22.00 L 453.46,22.00 Q 457.46,22.00 457.46,26.00 L 457.46,84.00 Q 457.46,88.00 453.46,88.00 L 395.46,88.00 Q 391.46,88.00 391.46,84.00 L 391.46,26.00 Q 391.46,22.00 395.46,22.00 Z" />
    <path class="key-bg part-1" d="M 764.92,22.00 L 822.92,22.00 Q 826.92,22.00 826.92,26.00 L 826.92,84.00 Q 826.92,88.00 822.92,88.00 L 764.92,88.00 Q 760.92,88.00 760.92,84.00 L 760.92,26.00 Q 760.92,22.00 764.92,22.00 Z" />
    <path class="key-bg part-1" d="M 838.77,22.00 L 896.77,22.00 Q 900.77,22.00 900.77,26.00 L 900.77,84.00 Q 900.77,88.00 896.77,88.00 L 838.77,88.00 Q 834.77,88.00 834.77,84.00 L 834.77,26.00 Q 834.77,22.00 838.77,22.00 Z" />
    <path class="key-bg part-1" d="M 912.69,22.00 L 970.69,22.00 Q 974.69,22.00 974.69,26.00 L 974.69,84.00 Q 974.69,88.00 970.69,88.00 L 912.69,88.00 Q 908.69,88.00 908.69,84.00 L 908.69,26.00 Q 908.69,22.00 912.69,22.00 Z" />
    <path class="key-bg part-1" d="M 986.54,22.00 L 1044.54,22.00 Q 1048.54,22.00 1048.54,26.00 L 1048.54,84.00 Q 1048.54,88.00 1044.54,88.00 L 986.54,88.00 Q 982.54,88.00 982.54,84.00 L 982.54,26.00 Q 982.54,22.00 986.54,22.00 Z" />
    <path class="key-bg part-1" d="M 1060.46,22.00 L 1118.46,22.00 Q 1122.46,22.00 1122.46,26.00 L 1122.46,84.00 Q 1122.46,88.00 1118.46,88.00 L 1060.46,88.00 Q 1056.46,88.00 1056.46,84.00 L 1056.46,26.00 Q 1056.46,22.00 1060.46,22.00 Z" />
    <path class="key-bg part-1" d="M 1134.31,22.00 L 1192.31,22.00 Q 1196.31,22.00 1196.31,26.00 L 1196.31,84.00 Q 1196.31,88.00 1192.31,88.00 L 1134.31,88.00 Q 1130.31,88.00 1130.31,84.00 L 1130.31,26.00 Q 1130.31,22.00 1134.31,22.00 Z" />
    <path class="key-bg part-1" d="M 1208.23,22.00 L 1266.23,22.00 Q 1270.23,22.00 1270.23,26.00 L 1270.23,84.00 Q 1270.23,88.00 1266.23,88.00 L 1208.23,88.00 Q 1204.23,88.00 1204.23,84.00 L 1204.23,26.00 Q 1204.23,22.00 1208.23,22.00 Z" />
    <path class="key-bg part-0" d="M 35.24,100.26 L 93.24,100.26 Q 97.24,100.26 97.24,104.26 L 97.24,162.26 Q 97.24,166.26 93.24,166.26 L 35.24,166.26 Q 31.24,166.26 31.24,162.26 L 31.24,104.26 Q 31.24,100.26 35.24,100.26 Z" />
    <path class="key-bg part-0" d="M 118.33,100.26 L 176.33,100.26 Q 180.33,100.26 180.33,104.26 L 180.33,162.26 Q 180.33,166.26 176.33,166.26 L 118.33,166.26 Q 114.33,166.26 114.33,162.26 L 114.33,104.26 Q 114.33,100.26 118.33,100.26 Z" />
    <path class="key-bg part-0" d="M 192.25,100.26 L 250.25,100.26 Q 254.25,100.26 254.25,104.26 L 254.25,162.26 Q 254.25,166.26 250.25,166.26 L 192.25,166.26 Q 188.25,166.26 188.25,162.26 L 188.25,104.26 Q 188.25,100.26 192.25,100.26 Z" />
    <path class="key-bg part-0" d="M 266.17,100.26 L 324.17,100.26 Q 328.17,100.26 328.17,104.26 L 328.17,162.26 Q 328.17,166.26 324.17,166.26 L 266.17,166.26 Q 262.17,166.26 262.17,162.26 L 262.17,104.26 Q 262.17,100.26 266.17,100.26 Z" />
    <path class="key-bg part-0" d="M 340.02,100.26 L 398.02,100.26 Q 402.02,100.26 402.02,104.26 L 402.02,162.26 Q 402.02,166.26 398.02,166.26 L 340.02,166.26 Q 336.02,166.26 336.02,162.26 L 336.02,104.26 Q 336.02,100.26 340.02,100.26 Z" />
    <path class="key-bg part-0" d="M 413.94,100.26 L 471.94,100.26 Q 475.94,100.26 475.94,104.26 L 475.94,162.26 Q 475.94,166.26 471.94,166.26 L 413.94,166.26 Q 409.94,166.26 409.94,162.26 L 409.94,104.26 Q 409.94,100.26 413.94,100.26 Z" />
    <path class="key-bg part-1" d="M 792.22,100.26 L 850.22,100.26 Q 854.22,100.26 854.22,104.26 L 854.22,162.26 Q 854.22,166.26 850.22,166.26 L 792.22,166.26 Q 788.22,166.26 788.22,162.26 L 788.22,104.26 Q 788.22,100.26 792.22,100.26 Z" />
    <path class="key-bg part-1" d="M 866.14,100.26 L 924.14,100.26 Q 928.14,100.26 928.14,104.26 L 928.14,162.26 Q 928.14,166.26 924.14,166.26 L 866.14,166.26 Q 862.14,166.26 862.14,162.26 L 862.14,104.26 Q 862.14,100.26 866.14,100.26 Z" />
    <path class="key-bg part-1" d="M 939.99,100.26 L 997.99,100.26 Q 1001.99,100.26 1001.99,104.26 L 1001.99,162.26 Q 1001.99,166.26 997.99,166.26 L 939.99,166.26 Q 935.99,166.26 935.99,162.26 L 935.99,104.26 Q 935.99,100.26 939.99,100.26 Z" />
    <path class="key-bg part-1" d="M 1013.91,100.26 L 1071.91,100.26 Q 1075.91,100.26 1075.91,104.26 L 1075.91,162.26 Q 1075.91,166.26 1071.91,166.26 L 1013.91,166.26 Q 1009.91,166.26 1009.91,162.26 L 1009.91,104.26 Q 1009.91,100.26 1013.91,100.26 Z" />
    <path class="key-bg part-1" d="M 1087.76,100.26 L 1145.76,100.26 Q 1149.76,100.26 1149.76,104.26 L 1149.76,162.26 Q 1149.76,166.26 1145.76,166.26 L 1087.76,166.26 Q 1083.76,166.26 1083.76,162.26 L 1083.76,104.26 Q 1083.76,100.26 1087.76,100.26 Z" />
    <path class="key-bg part-1" d="M 1180.16,100.26 L 1238.16,100.26 Q 1242.16,100.26 1242.16,104.26 L 1242.16,162.26 Q 1242.16,166.26 1238.16,166.26 L 1180.16,166.26 Q 1176.16,166.26 1176.16,162.26 L 1176.16,104.26 Q 1176.16,100.26 1180.16,100.26 Z" />
    <path class="key-bg part-0" d="M 53.72,178.45 L 111.72,178.45 Q 115.72,178.45 115.72,182.45 L 115.72,240.45 Q 115.72,244.45 111.72,244.45 L 53.72,244.45 Q 49.72,244.45 49.72,240.45 L 49.72,182.45 Q 49.72,178.45 53.72,178.45 Z" />
    <path class="key-bg part-0" d="M 155.29,178.45 L 213.29,178.45 Q 217.29,178.45 217.29,182.45 L 217.29,240.45 Q 217.29,244.45 213.29,244.45 L 155.29,244.45 Q 151.29,244.45 151.29,240.45 L 151.29,182.45 Q 151.29,178.45 155.29,178.45 Z" />
    <path class="key-bg part-0" d="M 229.21,178.45 L 287.21,178.45 Q 291.21,178.45 291.21,182.45 L 291.21,240.45 Q 291.21,244.45 287.21,244.45 L 229.21,244.45 Q 225.21,244.45 225.21,240.45 L 225.21,182.45 Q 225.21,178.45 229.21,178.45 Z" />
    <path class="key-bg part-0" d="M 303.06,178.45 L 361.06,178.45 Q 365.06,178.45 365.06,182.45 L 365.06,240.45 Q 365.06,244.45 361.06,244.45 L 303.06,244.45 Q 299.06,244.45 299.06,240.45 L 299.06,182.45 Q 299.06,178.45 303.06,178.45 Z" />
    <path class="key-bg part-0" d="M 376.98,178.45 L 434.98,178.45 Q 438.98,178.45 438.98,182.45 L 438.98,240.45 Q 438.98,244.45 434.98,244.45 L 376.98,244.45 Q 372.98,244.45 372.98,240.45 L 372.98,182.45 Q 372.98,178.45 376.98,178.45 Z" />
    <path class="key-bg part-0" d="M 450.83,178.45 L 508.83,178.45 Q 512.83,178.45 512.83,182.45 L 512.83,240.45 Q 512.83,244.45 508.83,244.45 L 450.83,244.45 Q 446.83,244.45 446.83,240.45 L 446.83,182.45 Q 446.83,178.45 450.83,178.45 Z" />
    <path class="key-bg part-1" d="M 753.23,178.45 L 811.23,178.45 Q 815.23,178.45 815.23,182.45 L 815.23,240.45 Q 815.23,244.45 811.23,244.45 L 753.23,244.45 Q 749.23,244.45 749.23,240.45 L 749.23,182.45 Q 749.23,178.45 753.23,178.45 Z" />
    <path class="key-bg part-1" d="M 827.08,178.45 L 885.08,178.45 Q 889.08,178.45 889.08,182.45 L 889.08,240.45 Q 889.08,244.45 885.08,244.45 L 827.08,244.45 Q 823.08,244.45 823.08,240.45 L 823.08,182.45 Q 823.08,178.45 827.08,178.45 Z" />
    <path class="key-bg part-1" d="M 901.00,178.45 L 959.00,178.45 Q 963.00,178.45 963.00,182.45 L 963.00,240.45 Q 963.00,244.45 959.00,244.45 L 901.00,244.45 Q 897.00,244.45 897.00,240.45 L 897.00,182.45 Q 897.00,178.45 901.00,178.45 Z" />
    <path class="key-bg part-1" d="M 974.92,178.45 L 1032.92,178.45 Q 1036.92,178.45 1036.92,182.45 L 1036.92,240.45 Q 1036.92,244.45 1032.92,244.45 L 974.92,244.45 Q 970.92,244.45 970.92,240.45 L 970.92,182.45 Q 970.92,178.45 974.92,178.45 Z" />
    <path class="key-bg part-1" d="M 1048.77,178.45 L 1106.77,178.45 Q 1110.77,178.45 1110.77,182.45 L 1110.77,240.45 Q 1110.77,244.45 1106.77,244.45 L 1048.77,244.45 Q 1044.77,244.45 1044.77,240.45 L 1044.77,182.45 Q 1044.77,178.45 1048.77,178.45 Z" />
    <path class="key-bg part-1" d="M 1122.69,178.45 L 1180.69,178.45 Q 1184.69,178.45 1184.69,182.45 L 1184.69,240.45 Q 1184.69,244.45 1180.69,244.45 L 1122.69,244.45 Q 1118.69,244.45 1118.69,240.45 L 1118.69,182.45 Q 1118.69,178.45 1122.69,178.45 Z" />
    <path class="key-bg part-1" d="M 1196.54,178.45 L 1254.54,178.45 Q 1258.54,178.45 1258.54,182.45 L 1258.54,240.45 Q 1258.54,244.45 1254.54,244.45 L 1196.54,244.45 Q 1192.54,244.45 1192.54,240.45 L 1192.54,182.45 Q 1192.54,178.45 1196.54,178.45 Z" />
    <path class="key-bg part-0" d="M 35.24,256.71 L 93.24,256.71 Q 97.24,256.71 97.24,260.71 L 97.24,318.71 Q 97.24,322.71 93.24,322.71 L 35.24,322.71 Q 31.24,322.71 31.24,318.71 L 31.24,260.71 Q 31.24,256.71 35.24,256.71 Z" />
    <path class="key-bg part-0" d="M 127.22,256.71 L 185.22,256.71 Q 189.22,256.71 189.22,260.71 L 189.22,318.71 Q 189.22,322.71 185.22,322.71 L 127.22,322.71 Q 123.22,322.71 123.22,318.71 L 123.22,260.71 Q 123.22,256.71 127.22,256.71 Z" />
    <path class="key-bg part-0" d="M 378.73,272.32 L 436.73,272.32 Q 440.73,272.32 440.73,276.32 L 440.73,334.32 Q 440.73,338.32 436.73,338.32 L 378.73,338.32 Q 374.73,338.32 374.73,334.32 L 374.73,276.32 Q 374.73,272.32 378.73,272.32 Z" />
    <path class="key-bg part-0" d="M 491.50,272.32 L 549.50,272.32 Q 553.50,272.32 553.50,276.32 L 553.50,334.32 Q 553.50,338.32 549.50,338.32 L 491.50,338.32 Q 487.50,338.32 487.50,334.32 L 487.50,276.32 Q 487.50,272.32 491.50,272.32 Z" />
    <path class="key-bg part-1" d="M 726.00,272.32 L 784.00,272.32 Q 788.00,272.32 788.00,276.32 L 788.00,334.32 Q 788.00,338.32 784.00,338.32 L 726.00,338.32 Q 722.00,338.32 722.00,334.32 L 722.00,276.32 Q 722.00,272.32 726.00,272.32 Z" />
    <path class="key-bg part-1" d="M 836.81,272.32 L 894.81,272.32 Q 898.81,272.32 898.81,276.32 L 898.81,334.32 Q 898.81,338.32 894.81,338.32 L 836.81,338.32 Q 832.81,338.32 832.81,334.32 L 832.81,276.32 Q 832.81,272.32 836.81,272.32 Z" />
    <path class="key-bg part-1" d="M 1048.77,256.71 L 1106.77,256.71 Q 1110.77,256.71 1110.77,260.71 L 1110.77,318.71 Q 1110.77,322.71 1106.77,322.71 L 1048.77,322.71 Q 1044.77,322.71 1044.77,318.71 L 1044.77,260.71 Q 1044.77,256.71 1048.77,256.71 Z" />
    <path class="key-bg part-1" d="M 1122.69,256.71 L 1180.69,256.71 Q 1184.69,256.71 1184.69,260.71 L 1184.69,318.71 Q 1184.69,322.71 1180.69,322.71 L 1122.69,322.71 Q 1118.69,322.71 1118.69,318.71 L 1118.69,260.71 Q 1118.69,256.71 1122.69,256.71 Z" />
    <path class="key-bg part-1" d="M 1196.54,256.71 L 1254.54,256.71 Q 1258.54,256.71 1258.54,260.71 L 1258.54,318.71 Q 1258.54,322.71 1254.54,322.71 L 1196.54,322.71 Q 1192.54,322.71 1192.54,318.71 L 1192.54,260.71 Q 1192.54,256.71 1196.54,256.71 Z" />
  </g>
  <g>
    <text class="key-index" x="55.00" y="43.36" font-size="26">0</text>
    <text class="key-part part-0" x="55.00" y="70.64" font-size="18">left</text>
    <text class="key-index" x="128.92" y="43.36" font-size="26">1</text>
    <text class="key-part part-0" x="128.92" y="70.64" font-size="18">left</text>
    <text class="key-index" x="202.77" y="43.36" font-size="26">2</text>
    <text class="key-part part-0" x="202.77" y="70.64" font-size="18">left</text>
    <text class="key-index" x="276.69" y="43.36" font-size="26">3</text>
    <text class="key-part part-0" x="276.69" y="70.64" font-size="18">left</text>
    <text class="key-index" x="350.54" y="43.36" font-size="26">4</text>
    <text class="key-part part-0" x="350.54" y="70.64" font-size="18">left</text>
    <text class="key-index" x="424.46" y="43.36" font-size="26">5</text>
    <text class="key-part part-0" x="424.46" y="70.64" font-size="18">left</text>
    <text class="key-index" x="793.92" y="43.36" font-size="26">6</text>
    <text class="key-part part-1" x="793.92" y="70.64" font-size="18">right</text>
    <text class="key-index" x="867.77" y="43.36" font-size="26">7</text>
    <text class="key-part part-1" x="867.77" y="70.64" font-size="18">right</text>
    <text class="key-index" x="941.69" y="43.36" font-size="26">8</text>
    <text class="key-part part-1" x="941.69" y="70.64" font-size="18">right</text>
    <text class="key-index" x="1015.54" y="43.36" font-size="26">9</text>
    <text class="key-part part-1" x="1015.54" y="70.64" font-size="18">right</text>
    <text class="key-index" x="1089.46" y="43.36" font-size="26">10</text>
    <text class="key-part part-1" x="1089.46" y="70.64" font-size="18">right</text>
    <text class="key-index" x="1163.31" y="43.36" font-size="26">11</text>
    <text class="key-part part-1" x="1163.31" y="70.64" font-size="18">right</text>
    <text class="key-index" x="1237.23" y="43.36" font-size="26">12</text>
    <text class="key-part part-1" x="1237.23" y="70.64" font-size="18">right</text>
    <text class="key-index" x="64.24" y="121.62" font-size="26">13</text>
    <text class="key-part part-0" x="64.24" y="148.90" font-size="18">left</text>
    <text class="key-index" x="147.33" y="121.62" font-size="26">14</text>
    <text class="key-part part-0" x="147.33" y="148.90" font-size="18">left</text>
    <text class="key-index" x="221.25" y="121.62" font-size="26">15</text>
    <text class="key-part part-0" x="221.25" y="148.90" font-size="18">left</text>
    <text class="key-index" x="295.17" y="121.62" font-size="26">16</text>
    <text class="key-part part-0" x="295.17" y="148.90" font-size="18">left</text>
    <text class="key-index" x="369.02" y="121.62" font-size="26">17</text>
    <text class="key-part part-0" x="369.02" y="148.90" font-size="18">left</text>
    <text class="key-index" x="442.94" y="121.62" font-size="26">18</text>
    <text class="key-part part-0" x="442.94" y="148.90" font-size="18">left</text>
    <text class="key-index" x="821.22" y="121.62" font-size="26">19</text>
    <text class="key-part part-1" x="821.22" y="148.90" font-size="18">right</text>
    <text class="key-index" x="895.14" y="121.62" font-size="26">20</text>
    <text class="key-part part-1" x="895.14" y="148.90" font-size="18">right</text>
    <text class="key-index" x="968.99" y="121.62" font-size="26">21</text>
    <text class="key-part part-1" x="968.99" y="148.90" font-size="18">right</text>
    <text class="key-index" x="1042.91" y="121.62" font-size="26">22</text>
    <text class="key-part part-1" x="1042.91" y="148.90" font-size="18">right</text>
    <text class="key-index" x="1116.76" y="121.62" font-size="26">23</text>
    <text class="key-part part-1" x="1116.76" y="148.90" font-size="18">right</text>
    <text class="key-index" x="1209.16" y="121.62" font-size="26">24</text>
    <text class="key-part part-1" x="1209.16" y="148.90" font-size="18">right</text>
    <text class="key-index" x="82.72" y="199.81" font-size="26">25</text>
    <text class="key-part part-0" x="82.72" y="227.09" font-size="18">left</text>
    <text class="key-index" x="184.29" y="199.81" font-size="26">26</text>
    <text class="key-part part-0" x="184.29" y="227.09" font-size="18">left</text>
    <text class="key-index" x="258.21" y="199.81" font-size="26">27</text>
    <text class="key-part part-0" x="258.21" y="227.09" font-size="18">left</text>
    <text class="key-index" x="332.06" y="199.81" font-size="26">28</text>
    <text class="key-part part-0" x="332.06" y="227.09" font-size="18">left</text>
    <text class="key-index" x="405.98" y="199.81" font-size="26">29</text>
    <text class="key-part part-0" x="405.98" y="227.09" font-size="18">left</text>
    <text class="key-index" x="479.83" y="199.81" font-size="26">30</text>
    <text class="key-part part-0" x="479.83" y="227.09" font-size="18">left</text>
    <text class="key-index" x="782.23" y="199.81" font-size="26">31</text>
    <text class="key-part part-1" x="782.23" y="227.09" font-size="18">right</text>
    <text class="key-index" x="856.08" y="199.81" font-size="26">32</text>
    <text class="key-part part-1" x="856.08" y="227.09" font-size="18">right</text>
    <text class="key-index" x="930.00" y="199.81" font-size="26">33</text>
    <text class="key-part part-1" x="930.00" y="227.09" font-size="18">right</text>
    <text class="key-index" x="1003.92" y="199.81" font-size="26">34</text>
    <text class="key-part part-1" x="1003.92" y="227.09" font-size="18">right</text>
    <text class="key-index" x="1077.77" y="199.81" font-size="26">35</text>
    <text class="key-part part-1" x="1077.77" y="227.09" font-size="18">right</text>
    <text class="key-index" x="1151.69" y="199.81" font-size="26">36</text>
    <text class="key-part part-1" x="1151.69" y="227.09" font-size="18">right</text>
    <text class="key-index" x="1225.54" y="199.81" font-size="26">37</text>
    <text class="key-part part-1" x="1225.54" y="227.09" font-size="18">right</text>
    <text class="key-index" x="64.24" y="278.07" font-size="26">38</text>
    <text class="key-part part-0" x="64.24" y="305.35" font-size="18">left</text>
    <text class="key-index" x="156.22" y="278.07" font-size="26">39</text>
    <text class="key-part part-0" x="156.22" y="305.35" font-size="18">left</text>
    <text class="key-index" x="407.73" y="293.68" font-size="26">40</text>
    <text class="key-part part-0" x="407.73" y="320.96" font-size="18">left</text>
    <text class="key-index" x="520.50" y="293.68" font-size="26">41</text>
    <text class="key-part part-0" x="520.50" y="320.96" font-size="18">left</text>
    <text class="key-index" x="755.00" y="293.68" font-size="26">42</text>
    <text class="key-part part-1" x="755.00" y="320.96" font-size="18">right</text>
    <text class="key-index" x="865.81" y="293.68" font-size="26">43</text>
    <text class="key-part part-1" x="865.81" y="320.96" font-size="18">right</text>
    <text class="key-index" x="1077.77" y="278.07" font-size="26">44</text>
    <text class="key-part part-1" x="1077.77" y="305.35" font-size="18">right</text>
    <text class="key-index" x="1151.69" y="278.07" font-size="26">45</text>
    <text class="key-part part-1" x="1151.69" y="305.35" font-size="18">right</text>
    <text class="key-index" x="1225.54" y="278.07" font-size="26">46</text>
    <text class="key-part part-1" x="1225.54" y="305.35" font-size="18">right</text>
  </g>
</svg>
